<svg data-name="Layer 1" xmlns="http://www.w3.org/2000/svg" width="885.58745" height="762.89248" viewBox="0 0 885.58745 762.89248" xmlns:xlink="http://www.w3.org/1999/xlink"><title>mello</title><path d="M376.948,313.57787S282.23242,346.2,264.06779,376.31267,376.948,313.57787,376.948,313.57787Z" transform="translate(-157.20627 -68.55376)" fill="#6c63ff"/><path d="M213.29691,417.99716a4.6155,4.6155,0,0,1-3.59308-1.32569c-2.94663-2.65429-.53838-7.67244,1.52831-11.21728,27.71033-47.50121,167.03962-97.55829,172.956-99.66551l12.74173-4.53766-10.91046,7.99277c-.4033.2962-40.9364,29.96516-82.43049,57.9167C239.07948,410.618,219.92732,417.99716,213.29691,417.99716Zm158.50846-103.33c-36.585,14.161-135.17853,55.09646-157.15768,92.77845-2.92733,5.01719-2.3079,6.27727-2.30019,6.28789.59242.63872,8.07961,4.64861,88.55147-49.52546C328.95085,345.32317,356.62644,325.60176,371.80537,314.66718Z" transform="translate(-157.20627 -68.55376)" fill="#3f3d56"/><path d="M374.89529,280.994s-87.28413-8.97221-113.76274,6.3604S374.89529,280.994,374.89529,280.994Z" transform="translate(-157.20627 -68.55376)" fill="#6c63ff"/><path d="M255.9546,295.65878c-30.55275,0-32.65033-4.89755-33.61131-7.13695-1.92-4.48074,3.42327-8.7,5.17928-10.08648,37.88557-29.9121,152.95868.31647,157.83886,1.61708l9.359,2.496-9.58862,1.36911c-.38594.055-38.94111,5.53917-77.84942,8.97209C284.59118,294.89173,268.0441,295.65878,255.9546,295.65878ZM282.729,269.3002c-21.51989,0-41.20657,3.11741-52.75575,12.23616-3.485,2.75077-4.34952,4.60713-3.99639,5.42725.88573,2.06476,9.33969,8.30923,80.95815,1.9895,26.68759-2.35518,53.20729-5.67714,67.29209-7.54025C356.18068,277.2592,317.11414,269.3002,282.729,269.3002Z" transform="translate(-157.20627 -68.55376)" fill="#3f3d56"/><path d="M399.8741,265.6213s-43.90353-105.418-33.26616-115.85263S399.8741,265.6213,399.8741,265.6213Z" transform="translate(-157.20627 -68.55376)" fill="#6c63ff"/><path d="M402.30216,274.89437l-5.45908-13.94875c-.13315-.34156-13.49046-34.55783-24.4974-69.78429-22.67191-72.54856-13.37853-78.74382-10.32576-80.77964a5.14036,5.14036,0,0,1,5.24682-.44287c17.12406,7.97926,31.76846,135.549,33.38168,150.069Zm-37.27579-161.5207a1.4662,1.4662,0,0,0-.81432.2962c-10.91046,7.274,11.20763,78.88759,30.65117,131.01137-6.669-53.74568-18.94954-126.3531-29.26566-131.16092A1.342,1.342,0,0,0,365.02637,113.37367Z" transform="translate(-157.20627 -68.55376)" fill="#3f3d56"/><path d="M416.468,288.803s23.56445-106.55435,48.251-106.55435S416.468,288.803,416.468,288.803Z" transform="translate(-157.20627 -68.55376)" fill="#6c63ff"/><path d="M410.25055,296.15568l2.33106-8.77333c1.71164-6.43358,42.39912-157.57256,86.87843-157.57256,6.09782,0,8.728,2.86076,9.86264,5.26033,11.85986,25.11779-82.50576,140.95022-93.30429,154.075ZM499.46,133.76179c-35.5024,0-70.79254,112.20945-80.46993,145.4657C450.8319,239.666,514.29934,154.86776,505.7489,136.75763,505.39769,136.01663,504.33443,133.76179,499.46,133.76179Z" transform="translate(-157.20627 -68.55376)" fill="#3f3d56"/><path d="M430.3,289.86586s81.016-51.19564,247.00011-35.568S430.3,289.86586,430.3,289.86586Z" transform="translate(-157.20627 -68.55376)" fill="#6c63ff"/><path d="M424.77338,292.00106l4.24146-3.63554c.85871-.73617,21.51216-18.19406,62.89433-32.23351,38.08047-12.92216,101.5595-25.09463,187.71429-9.7073,36.39971,6.50016,41.12552,11.34368,40.809,15.60925-.31261,4.21444-1.04589,14.0848-146.47878,23.23538-71.06849,4.47109-142.87991,6.55129-143.59776,6.57155Zm176.65911-48.81147c-93.58216,0-148.90826,33.25143-164.94976,44.50826,18.99007-.60785,78.36851-2.66972,137.23172-6.37376,135.13993-8.50317,142.64449-17.80427,142.77571-19.58248.01544-.19007-.08491-4.73449-37.56138-11.42665A440.49716,440.49716,0,0,0,601.43249,243.18959Z" transform="translate(-157.20627 -68.55376)" fill="#3f3d56"/><path d="M481.676,295.86962S623.58742,293.9755,631.56,309.12851,481.676,295.86962,481.676,295.86962Z" transform="translate(-157.20627 -68.55376)" fill="#6c63ff"/><path d="M649.73259,334.59024c-45.2975,0-154.17824-32.52586-168.62967-36.90529l-11.8425-3.58825,12.37123-.27788c18.15258-.4062,177.64132-3.05952,187.67377,29.04953,1.18869,3.80342-.18911,6.24351-1.55533,7.62131C664.89415,333.36972,658.505,334.59024,649.73259,334.59024ZM494.62038,297.58943c66.5646,19.50915,158.99281,41.552,170.32394,30.11762.61364-.61943,1.235-1.59489.59049-3.65966C658.40654,301.23558,549.63,297.216,494.62038,297.58943Z" transform="translate(-157.20627 -68.55376)" fill="#3f3d56"/><path d="M454.012,311.60187s85.71521,39.618,68.96626,51.80809S454.012,311.60187,454.012,311.60187Z" transform="translate(-157.20627 -68.55376)" fill="#6c63ff"/><path d="M576.38514,411.34263c-41.46322,0-125.88708-99.73015-129.814-104.3971l-5.5575-6.60629,7.87892,3.53133c5.74854,2.5771,140.82865,63.46552,143.78494,93.96424.39172,4.04463-1.38359,7.58175-5.133,10.22928A18.8818,18.8818,0,0,1,576.38514,411.34263ZM455.41491,311.18891c32.60015,37.40219,105.13328,111.09891,129.84872,93.64681,2.6321-1.85732,3.73781-3.96068,3.48116-6.61979C586.61827,376.28791,498.34661,331.07242,455.41491,311.18891Z" transform="translate(-157.20627 -68.55376)" fill="#3f3d56"/><path d="M596.28408,359.02589s71.136,29.64,55.328,49.4S596.28408,359.02589,596.28408,359.02589Z" transform="translate(-157.20627 -68.55376)" fill="#6c63ff"/><path d="M463.892,335.31388S612.09209,497.346,598.26008,507.226,463.892,335.31388,463.892,335.31388Z" transform="translate(-157.20627 -68.55376)" fill="#6c63ff"/><path d="M436.228,323.45787S498.62388,427.37768,485.89,437.481,436.228,323.45787,436.228,323.45787Z" transform="translate(-157.20627 -68.55376)" fill="#6c63ff"/><path d="M506.85268,476.40883a7.30783,7.30783,0,0,1-2.28861-.384c-22.87453-7.51421-68.97864-142.49687-74.15985-157.86394l-4.6081-13.66606,8.11434,11.92355c.24121.356,24.49353,36.05237,46.01535,72.98178,39.78631,68.26947,36.48847,81.69432,30.547,85.85279A6.221,6.221,0,0,1,506.85268,476.40883Zm-67.678-144.95433c16.81723,47.73856,50.67361,135.577,66.62249,140.81708a2.5049,2.5049,0,0,0,2.41018-.25665c3.265-2.28475,6.71338-14.71484-31.68741-80.60984C462.89631,368.02692,448.16893,345.137,439.17465,331.4545Z" transform="translate(-157.20627 -68.55376)" fill="#3f3d56"/><path d="M409.831,319.50587S353.67424,485.2091,388.13408,483.50082,409.831,319.50587,409.831,319.50587Z" transform="translate(-157.20627 -68.55376)" fill="#6c63ff"/><path d="M374.15573,511.19339c-6.04764,0-10.69819-2.36387-13.832-7.03371-22.23194-33.13468,43.6264-179.26516,46.43988-185.47007l3.00453-6.62172.7603,7.2315c.62328,5.91739,14.88561,145.36632-17.42316,182.61992-5.10789,5.88748-11.18447,9.002-18.06,9.25671C374.74621,511.1876,374.449,511.19339,374.15573,511.19339Zm33.13661-183.908c-13.01961,29.93718-62.07229,147.27092-43.68622,174.67249,2.50474,3.73588,6.19816,5.46681,11.29254,5.27,5.81994-.21612,10.79854-2.8,15.22138-7.89821C417.128,468.18836,409.83181,357.37407,407.29234,327.28541Z" transform="translate(-157.20627 -68.55376)" fill="#3f3d56"/><path d="M390.43494,327.7427S296.17033,435.558,304.79729,446.91328,390.43494,327.7427,390.43494,327.7427Z" transform="translate(-157.20627 -68.55376)" fill="#6c63ff"/><path d="M276.43824,486.21743a5.52055,5.52055,0,0,1-3.45607-1.1443,6.08575,6.08575,0,0,1-2.2423-4.49232c-2.36772-26.78407,123.11026-166.34974,128.45164-172.27775l12.63174-14.01532L402.3697,310.6158c-4.02919,6.95845-98.95827,170.47638-124.52086,175.45884A7.38957,7.38957,0,0,1,276.43824,486.21743Zm112.36-160.29052C347.225,373.14252,273.03234,461.639,274.67644,480.23347a2.16267,2.16267,0,0,0,.73328,1.72128,1.924,1.924,0,0,0,1.68269.24121C294.7587,478.7534,356.47207,380.32965,388.7982,325.92691Z" transform="translate(-157.20627 -68.55376)" fill="#3f3d56"/><path d="M362.14181,255.14254s-82.18265-97.07637-158.17891-87.66835S362.14181,255.14254,362.14181,255.14254Z" transform="translate(-157.20627 -68.55376)" fill="#6c63ff"/><path d="M373.09633,259.67878l-6.46831-1.47814c-.51909-.11868-52.46051-12.03161-103.81338-27.22887-105.15643-31.11912-105.49606-45.42872-105.606-50.13041-.13508-5.67328,5.64048-10.06139,17.65665-13.41519,44.59317-12.44746,94.94452,12.07116,129.32,34.83666a429.998,429.998,0,0,1,64.30493,52.639Zm-172.711-91.67853a90.66265,90.66265,0,0,0-24.4588,3.23319c-9.606,2.68034-14.849,6.05922-14.76791,9.51433.44962,18.97173,117.0684,52.80206,199.53942,72.02755C341.20244,234.07374,267.54817,168.00025,200.38537,168.00025Z" transform="translate(-157.20627 -68.55376)" fill="#3f3d56"/><path d="M297.908,248.36984s-108.68-7.904-100.776,11.856S297.908,248.36984,297.908,248.36984Z" transform="translate(-157.20627 -68.55376)" fill="#6c63ff"/><path d="M325.572,175.25781s-5.928-27.664-15.808-21.736S325.572,175.25781,325.572,175.25781Z" transform="translate(-157.20627 -68.55376)" fill="#6c63ff"/><path d="M425.68821,194.832S452.80282,80.893,440.51375,80.475,425.68821,194.832,425.68821,194.832Z" transform="translate(-157.20627 -68.55376)" fill="#6c63ff"/><path d="M420.64192,220.05842,420.42,204.92677c-.0714-4.85992-1.57849-119.20747,13.28783-134.2957a6.23914,6.23914,0,0,1,4.49618-2.07731,5.25985,5.25985,0,0,1,4.23373,2.168c11.43919,14.65212-15.06508,122.41556-18.12556,134.65558ZM438.204,72.50576c-.19683,0-.795,0-1.68076.89924-9.81826,9.96491-12.09722,76.25646-12.23037,115.24291,10.88344-46.45531,21.97529-106.59984,15.03034-115.49377A1.333,1.333,0,0,0,438.204,72.50576Z" transform="translate(-157.20627 -68.55376)" fill="#3f3d56"/><path d="M550.83606,210.82582s11.856-29.64,23.712-21.736S550.83606,210.82582,550.83606,210.82582Z" transform="translate(-157.20627 -68.55376)" fill="#6c63ff"/><path d="M438.204,473.63394S422.396,590.218,452.036,588.242,438.204,473.63394,438.204,473.63394Z" transform="translate(-157.20627 -68.55376)" fill="#6c63ff"/><path d="M520.89385,447.12094S505.748,421.8779,505.748,404.20777c0,0-26.5052-27.76735-18.93228-35.34026s23.98088,21.45659,23.98088,21.45659S480.505,356.246,489.34005,351.19738s37.86456,32.816,37.86456,32.816l10.09722-5.04861s-21.44667-52.89655-6.31076-54.27254c6.94183-.63108,22.71873,50.48608,22.71873,50.48608l16.408,41.651s6.31076,15.14582,3.78646,23.98089a166.5688,166.5688,0,0,0-3.78646,16.408Z" transform="translate(-157.20627 -68.55376)" fill="#ffb9b9"/><path d="M560.02056,453.4317s8.83507-13.88367,5.63758-35.08334-20.7834-33.07287-20.7834-33.07287-11.35937,8.83506,0,31.5538c0,0-13.88367,12.62152-2.5243,32.81595" transform="translate(-157.20627 -68.55376)" opacity="0.1"/><path d="M565.06917,453.4317s8.83507-13.88367,5.63758-35.08334-20.7834-33.07287-20.7834-33.07287-11.35937,8.83506,0,31.5538c0,0-13.88367,12.62152-2.52431,32.81595" transform="translate(-157.20627 -68.55376)" fill="#ffb9b9"/><path d="M530.36,383.38226,523.41816,372.654s-32.816-5.04861-29.0295,6.31076,18.93228,6.31076,18.93228,6.31076l8.83506,8.83506Z" transform="translate(-157.20627 -68.55376)" opacity="0.1"/><path d="M536.03968,382.75118l-10.09722-13.88367s-32.81595-5.04861-29.0295,6.31076,18.93228,6.31076,18.93228,6.31076l8.83507,8.83507Z" transform="translate(-157.20627 -68.55376)" fill="#ffb9b9"/><polygon points="612.963 480.17 606.652 530.656 705.1 536.967 705.1 476.384 612.963 480.17" fill="#ffb9b9"/><path d="M1042.79373,831.44624,962.95544,671.76968c-4.76958-15.79408-19.664-41.51744-65.94028-58.04467L862.306,584.36256l-25.87412-.9292L732.9354,568.28754s-79.51558-5.04861-131.26382,26.50519L587.78791,588.482s-22.71874-80.77773-12.62152-138.83673l-58.059-5.04861s-31.55381,137.57458-16.408,179.2256,70.68051,71.94266,70.68051,71.94266l49.22393,49.22393,18.93228,85.82634H934.87972l4.69956-22.5186,23.06779,22.5186Z" transform="translate(-157.20627 -68.55376)" fill="#cfcce0"/><path d="M931.16554,544.94415c-92.98763,25.10962-184.38134,26.88481-273.844.38666-10.51611-3.11479-17.706-12.34809-17.706-22.828V261.16669c0-11.69344,8.8977-21.66828,21.02328-23.56988,84.3933-13.235,173.79719-12.20991,267.30477.49412,12.35541,1.67862,21.52736,11.768,21.52736,23.64372V521.94992C949.471,532.64966,941.98321,542.023,931.16554,544.94415Z" transform="translate(-157.20627 -68.55376)" fill="#cfcce0"/><path d="M739.39644,366.11226s-21.38763-31.25885-8.226-39.48486,32.904,14.80682,32.904,14.80682,24.678-21.38763,37.83966-13.16162-13.16162,37.83966-13.16162,37.83966,19.74243,4.93561,21.38763,18.09723,8.226,47.71087-19.74243,49.35608c-14.9831.88136-23.356-3.431-27.90107-7.62533a9.16934,9.16934,0,0,0-12.07694-.14313c-9.48423,7.99031-26.56511,17.20067-38.99171-5.39316C706.49239,385.85469,739.39644,366.11226,739.39644,366.11226Z" transform="translate(-157.20627 -68.55376)" fill="#3f3d56"/><path d="M897.33589,369.40267s21.38763-31.25885,8.226-39.48486-32.904,14.80682-32.904,14.80682-24.678-21.38763-37.83966-13.16162,13.16162,37.83966,13.16162,37.83966-19.74243,4.9356-21.38763,18.09723-8.226,47.71087,19.74243,49.35607c14.98309.88136,23.356-3.431,27.90106-7.62532a9.16933,9.16933,0,0,1,12.077-.14313c9.48422,7.99031,26.5651,17.20066,38.99171-5.39317C930.23994,389.1451,897.33589,369.40267,897.33589,369.40267Z" transform="translate(-157.20627 -68.55376)" fill="#3f3d56"/><path d="M713.4308,454.83487s30.86235,24.84747,96.67237,23.28084,87.092-4.25307,101.15893-19.76449,18.23618,2.40378,13.86817,14.14723-9.978,31.78337-42.76266,35.03155c-21.58337,2.13839-68.23271,2.64529-97.58986,2.74205a150.03117,150.03117,0,0,1-65.96688-14.67516q-.40844-.19792-.8137-.3977a37.34828,37.34828,0,0,1-20.809-33.47443c.00256-5.53442.97666-8.52471,4.57945-9.61466C708.26033,450.14587,713.4308,454.83487,713.4308,454.83487Z" transform="translate(-157.20627 -68.55376)" fill="#3f3d56"/><path d="M807.83693,568.67344A498.46945,498.46945,0,0,1,659.49607,546.1703a28.978,28.978,0,0,1-20.49083-27.76805V212.24557a28.95737,28.95737,0,0,1,24.33319-28.671c90.63689-14.9389,190.99857-14.7451,298.2965.57562a29.18086,29.18086,0,0,1,24.91771,28.76059V517.75487a29.214,29.214,0,0,1-21.18535,27.97023C912.82505,560.63571,860.881,568.35394,810.97744,568.664,809.9341,568.6703,808.88132,568.67344,807.83693,568.67344Zm-3.49667-394.015a865.2424,865.2424,0,0,0-140.653,11.03315,26.81914,26.81914,0,0,0-22.53666,26.554V518.40225A26.83979,26.83979,0,0,0,660.134,544.12132c95.89185,29.85055,198.38893,29.69552,304.64665-.45987l.29331,1.03183-.29331-1.03183a27.05974,27.05974,0,0,0,19.62661-25.90658V212.91076a27.02543,27.02543,0,0,0-23.07614-26.63724A1112.3449,1112.3449,0,0,0,804.34026,174.65846Z" transform="translate(-157.20627 -68.55376)" fill="#3f3d56"/><path d="M797.75022,220.05232c-23.63448,0-43.85923-1.0601-60.41918-2.4968-52.08343-4.51749-80.149-13.63471-80.42657-13.72637l.67251-2.03745c.27551.09113,28.17188,9.145,80.04,13.63523,47.87181,4.14562,126.53957,5.13764,229.43471-13.67189l.38549,2.11078C899.83771,216.22254,842.65175,220.05232,797.75022,220.05232Z" transform="translate(-157.20627 -68.55376)" fill="#3f3d56"/></svg>