<svg width="476" height="477" viewBox="0 0 476 477" fill="none" xmlns="http://www.w3.org/2000/svg">
<path d="M432 74C432 57.4315 418.569 44 402 44H77C60.4315 44 47 57.4315 47 74V334H402C418.569 334 432 320.569 432 304V74Z" fill="#DE7456"/>
<path d="M112 333H47V396L112 333Z" fill="#DE7456"/>
<rect width="3.65337" height="1" transform="matrix(0.939693 -0.34202 -0.34202 -0.939693 109.567 335.189)" fill="#DE7456"/>
<path fill-rule="evenodd" clip-rule="evenodd" d="M404.6 0H71.4C52.4636 0 34.3027 7.52248 20.9126 20.9126C7.52249 34.3027 3.05176e-05 52.4635 0 71.4V452.2C0.023468 456.899 1.43726 461.485 4.06317 465.382C6.68912 469.278 10.4097 472.311 14.756 474.096C17.5806 475.428 20.678 476.08 23.8 476C26.9323 476.018 30.0373 475.418 32.937 474.233C35.8367 473.049 38.4741 471.304 40.698 469.098L128.758 380.8H404.6C423.536 380.8 441.697 373.278 455.087 359.887C468.478 346.497 476 328.336 476 309.4V71.4C476 52.4635 468.478 34.3027 455.087 20.9126C441.697 7.52248 423.536 0 404.6 0ZM102.102 340.102L47.6 394.842V71.4C47.6 65.0878 50.1075 59.0342 54.5709 54.5709C59.0342 50.1075 65.0879 47.6 71.4 47.6H404.6C410.912 47.6 416.966 50.1075 421.429 54.5709C425.893 59.0342 428.4 65.0878 428.4 71.4V309.4C428.4 315.712 425.893 321.766 421.429 326.229C416.966 330.693 410.912 333.2 404.6 333.2H119C115.868 333.182 112.763 333.782 109.863 334.967C106.963 336.151 104.326 337.896 102.102 340.102Z" fill="white"/>
</svg>
