<svg width="193" height="2528" viewBox="0 0 193 2528" fill="none" xmlns="http://www.w3.org/2000/svg">
<path fill-rule="evenodd" clip-rule="evenodd" d="M136 2528H149L149 1344C149 1327.43 134.433 1314.64 120.767 1305.27C107.623 1296.26 99 1281.14 99 1264C99 1246.86 107.623 1231.74 120.767 1222.73C134.433 1213.36 149 1200.57 149 1184L149 0H136L136 1179C136 1198.33 118.568 1213.3 103.79 1225.76C92.9109 1234.93 86 1248.66 86 1264C86 1279.34 92.9109 1293.07 103.79 1302.24C118.568 1314.7 136 1329.67 136 1349L136 2528Z" fill="url(#paint0_linear_18_552)"/>
<circle cx="162" cy="1264" r="30.5" transform="rotate(-90 162 1264)" fill="white"/>
<rect x="69" width="60" height="6" fill="#545454"/>
<rect x="69" y="53" width="60" height="6" fill="#545454"/>
<rect x="91" y="14" width="38" height="6" fill="#545454"/>
<rect x="91" y="28" width="38" height="6" fill="#545454"/>
<rect x="91" y="42" width="38" height="6" fill="#545454"/>
<rect x="69" y="104" width="60" height="6" fill="#545454"/>
<rect x="91" y="65" width="38" height="6" fill="#545454"/>
<rect x="91" y="79" width="38" height="6" fill="#545454"/>
<rect x="91" y="93" width="38" height="6" fill="#545454"/>
<rect x="69" width="60" height="6" fill="#545454"/>
<rect x="69" y="53" width="60" height="6" fill="#545454"/>
<rect x="91" y="14" width="38" height="6" fill="#545454"/>
<rect x="91" y="28" width="38" height="6" fill="#545454"/>
<rect x="91" y="42" width="38" height="6" fill="#545454"/>
<rect x="69" y="155" width="60" height="6" fill="#545454"/>
<rect x="91" y="116" width="38" height="6" fill="#545454"/>
<rect x="91" y="130" width="38" height="6" fill="#545454"/>
<rect x="91" y="144" width="38" height="6" fill="#545454"/>
<rect x="69" y="206" width="60" height="6" fill="#545454"/>
<rect x="91" y="167" width="38" height="6" fill="#545454"/>
<rect x="91" y="181" width="38" height="6" fill="#545454"/>
<rect x="91" y="195" width="38" height="6" fill="#545454"/>
<rect x="69" y="257" width="60" height="6" fill="#545454"/>
<rect x="91" y="218" width="38" height="6" fill="#545454"/>
<rect x="91" y="232" width="38" height="6" fill="#545454"/>
<rect x="91" y="246" width="38" height="6" fill="#545454"/>
<rect x="69" y="412" width="60" height="6" fill="#545454"/>
<rect x="91" y="373" width="38" height="6" fill="#545454"/>
<rect x="91" y="387" width="38" height="6" fill="#545454"/>
<rect x="91" y="401" width="38" height="6" fill="#545454"/>
<rect x="69" y="669" width="60" height="6" fill="#545454"/>
<rect x="91" y="630" width="38" height="6" fill="#545454"/>
<rect x="91" y="644" width="38" height="6" fill="#545454"/>
<rect x="91" y="658" width="38" height="6" fill="#545454"/>
<rect x="69" y="720" width="60" height="6" fill="#545454"/>
<rect x="91" y="681" width="38" height="6" fill="#545454"/>
<rect x="91" y="695" width="38" height="6" fill="#545454"/>
<rect x="91" y="709" width="38" height="6" fill="#545454"/>
<rect x="69" y="771" width="60" height="6" fill="#545454"/>
<rect x="91" y="732" width="38" height="6" fill="#545454"/>
<rect x="91" y="746" width="38" height="6" fill="#545454"/>
<rect x="91" y="760" width="38" height="6" fill="#545454"/>
<rect x="69" y="463" width="60" height="6" fill="#545454"/>
<rect x="91" y="424" width="38" height="6" fill="#545454"/>
<rect x="91" y="438" width="38" height="6" fill="#545454"/>
<rect x="91" y="452" width="38" height="6" fill="#545454"/>
<rect x="69" y="720" width="60" height="6" fill="#545454"/>
<rect x="91" y="681" width="38" height="6" fill="#545454"/>
<rect x="91" y="695" width="38" height="6" fill="#545454"/>
<rect x="91" y="709" width="38" height="6" fill="#545454"/>
<rect x="69" y="771" width="60" height="6" fill="#545454"/>
<rect x="91" y="732" width="38" height="6" fill="#545454"/>
<rect x="91" y="746" width="38" height="6" fill="#545454"/>
<rect x="91" y="760" width="38" height="6" fill="#545454"/>
<rect x="69" y="822" width="60" height="6" fill="#545454"/>
<rect x="91" y="783" width="38" height="6" fill="#545454"/>
<rect x="91" y="797" width="38" height="6" fill="#545454"/>
<rect x="91" y="811" width="38" height="6" fill="#545454"/>
<rect x="69" y="514" width="60" height="6" fill="#545454"/>
<rect x="91" y="475" width="38" height="6" fill="#545454"/>
<rect x="91" y="489" width="38" height="6" fill="#545454"/>
<rect x="91" y="503" width="38" height="6" fill="#545454"/>
<rect x="69" y="771" width="60" height="6" fill="#545454"/>
<rect x="91" y="732" width="38" height="6" fill="#545454"/>
<rect x="91" y="746" width="38" height="6" fill="#545454"/>
<rect x="91" y="760" width="38" height="6" fill="#545454"/>
<rect x="69" y="822" width="60" height="6" fill="#545454"/>
<rect x="91" y="783" width="38" height="6" fill="#545454"/>
<rect x="91" y="797" width="38" height="6" fill="#545454"/>
<rect x="91" y="811" width="38" height="6" fill="#545454"/>
<rect x="69" y="873" width="60" height="6" fill="#545454"/>
<rect x="91" y="834" width="38" height="6" fill="#545454"/>
<rect x="91" y="848" width="38" height="6" fill="#545454"/>
<rect x="91" y="862" width="38" height="6" fill="#545454"/>
<rect x="69" y="308" width="60" height="6" fill="#545454"/>
<rect x="91" y="269" width="38" height="6" fill="#545454"/>
<rect x="91" y="283" width="38" height="6" fill="#545454"/>
<rect x="91" y="297" width="38" height="6" fill="#545454"/>
<rect x="69" y="463" width="60" height="6" fill="#545454"/>
<rect x="91" y="424" width="38" height="6" fill="#545454"/>
<rect x="91" y="438" width="38" height="6" fill="#545454"/>
<rect x="91" y="452" width="38" height="6" fill="#545454"/>
<rect x="69" y="720" width="60" height="6" fill="#545454"/>
<rect x="91" y="681" width="38" height="6" fill="#545454"/>
<rect x="91" y="695" width="38" height="6" fill="#545454"/>
<rect x="91" y="709" width="38" height="6" fill="#545454"/>
<rect x="69" y="771" width="60" height="6" fill="#545454"/>
<rect x="91" y="732" width="38" height="6" fill="#545454"/>
<rect x="91" y="746" width="38" height="6" fill="#545454"/>
<rect x="91" y="760" width="38" height="6" fill="#545454"/>
<rect x="69" y="822" width="60" height="6" fill="#545454"/>
<rect x="91" y="783" width="38" height="6" fill="#545454"/>
<rect x="91" y="797" width="38" height="6" fill="#545454"/>
<rect x="91" y="811" width="38" height="6" fill="#545454"/>
<rect x="69" y="514" width="60" height="6" fill="#545454"/>
<rect x="91" y="475" width="38" height="6" fill="#545454"/>
<rect x="91" y="489" width="38" height="6" fill="#545454"/>
<rect x="91" y="503" width="38" height="6" fill="#545454"/>
<rect x="69" y="771" width="60" height="6" fill="#545454"/>
<rect x="91" y="732" width="38" height="6" fill="#545454"/>
<rect x="91" y="746" width="38" height="6" fill="#545454"/>
<rect x="91" y="760" width="38" height="6" fill="#545454"/>
<rect x="69" y="822" width="60" height="6" fill="#545454"/>
<rect x="91" y="783" width="38" height="6" fill="#545454"/>
<rect x="91" y="797" width="38" height="6" fill="#545454"/>
<rect x="91" y="811" width="38" height="6" fill="#545454"/>
<rect x="69" y="873" width="60" height="6" fill="#545454"/>
<rect x="91" y="834" width="38" height="6" fill="#545454"/>
<rect x="91" y="848" width="38" height="6" fill="#545454"/>
<rect x="91" y="862" width="38" height="6" fill="#545454"/>
<rect x="69" y="565" width="60" height="6" fill="#545454"/>
<rect x="91" y="526" width="38" height="6" fill="#545454"/>
<rect x="91" y="540" width="38" height="6" fill="#545454"/>
<rect x="91" y="554" width="38" height="6" fill="#545454"/>
<rect x="69" y="822" width="60" height="6" fill="#545454"/>
<rect x="91" y="783" width="38" height="6" fill="#545454"/>
<rect x="91" y="797" width="38" height="6" fill="#545454"/>
<rect x="91" y="811" width="38" height="6" fill="#545454"/>
<rect x="69" y="873" width="60" height="6" fill="#545454"/>
<rect x="91" y="834" width="38" height="6" fill="#545454"/>
<rect x="91" y="848" width="38" height="6" fill="#545454"/>
<rect x="91" y="862" width="38" height="6" fill="#545454"/>
<rect x="69" y="924" width="60" height="6" fill="#545454"/>
<rect x="91" y="885" width="38" height="6" fill="#545454"/>
<rect x="91" y="899" width="38" height="6" fill="#545454"/>
<rect x="91" y="913" width="38" height="6" fill="#545454"/>
<rect x="69" y="359" width="60" height="6" fill="#545454"/>
<rect x="91" y="320" width="38" height="6" fill="#545454"/>
<rect x="91" y="334" width="38" height="6" fill="#545454"/>
<rect x="91" y="348" width="38" height="6" fill="#545454"/>
<rect x="69" y="514" width="60" height="6" fill="#545454"/>
<rect x="91" y="475" width="38" height="6" fill="#545454"/>
<rect x="91" y="489" width="38" height="6" fill="#545454"/>
<rect x="91" y="503" width="38" height="6" fill="#545454"/>
<rect x="69" y="771" width="60" height="6" fill="#545454"/>
<rect x="91" y="732" width="38" height="6" fill="#545454"/>
<rect x="91" y="746" width="38" height="6" fill="#545454"/>
<rect x="91" y="760" width="38" height="6" fill="#545454"/>
<rect x="69" y="822" width="60" height="6" fill="#545454"/>
<rect x="91" y="783" width="38" height="6" fill="#545454"/>
<rect x="91" y="797" width="38" height="6" fill="#545454"/>
<rect x="91" y="811" width="38" height="6" fill="#545454"/>
<rect x="69" y="873" width="60" height="6" fill="#545454"/>
<rect x="91" y="834" width="38" height="6" fill="#545454"/>
<rect x="91" y="848" width="38" height="6" fill="#545454"/>
<rect x="91" y="862" width="38" height="6" fill="#545454"/>
<rect x="69" y="565" width="60" height="6" fill="#545454"/>
<rect x="91" y="526" width="38" height="6" fill="#545454"/>
<rect x="91" y="540" width="38" height="6" fill="#545454"/>
<rect x="91" y="554" width="38" height="6" fill="#545454"/>
<rect x="69" y="822" width="60" height="6" fill="#545454"/>
<rect x="91" y="783" width="38" height="6" fill="#545454"/>
<rect x="91" y="797" width="38" height="6" fill="#545454"/>
<rect x="91" y="811" width="38" height="6" fill="#545454"/>
<rect x="69" y="873" width="60" height="6" fill="#545454"/>
<rect x="91" y="834" width="38" height="6" fill="#545454"/>
<rect x="91" y="848" width="38" height="6" fill="#545454"/>
<rect x="91" y="862" width="38" height="6" fill="#545454"/>
<rect x="69" y="924" width="60" height="6" fill="#545454"/>
<rect x="91" y="885" width="38" height="6" fill="#545454"/>
<rect x="91" y="899" width="38" height="6" fill="#545454"/>
<rect x="91" y="913" width="38" height="6" fill="#545454"/>
<rect x="69" y="616" width="60" height="6" fill="#545454"/>
<rect x="91" y="577" width="38" height="6" fill="#545454"/>
<rect x="91" y="591" width="38" height="6" fill="#545454"/>
<rect x="91" y="605" width="38" height="6" fill="#545454"/>
<rect x="69" y="873" width="60" height="6" fill="#545454"/>
<rect x="91" y="834" width="38" height="6" fill="#545454"/>
<rect x="91" y="848" width="38" height="6" fill="#545454"/>
<rect x="91" y="862" width="38" height="6" fill="#545454"/>
<rect x="69" y="924" width="60" height="6" fill="#545454"/>
<rect x="91" y="885" width="38" height="6" fill="#545454"/>
<rect x="91" y="899" width="38" height="6" fill="#545454"/>
<rect x="91" y="913" width="38" height="6" fill="#545454"/>
<rect x="69" y="975" width="60" height="6" fill="#545454"/>
<rect x="91" y="936" width="38" height="6" fill="#545454"/>
<rect x="91" y="950" width="38" height="6" fill="#545454"/>
<rect x="91" y="964" width="38" height="6" fill="#545454"/>
<rect x="69" y="1186" width="60" height="6" fill="#545454"/>
<rect x="91" y="1144" width="38" height="6" fill="#545454"/>
<rect x="91" y="1158" width="38" height="6" fill="#545454"/>
<rect x="60" y="1213" width="38" height="6" fill="#545454"/>
<rect x="91" y="1172" width="38" height="6" fill="#545454"/>
<rect x="48" y="1227" width="38" height="6" fill="#545454"/>
<rect x="72" y="1199" width="38" height="6" fill="#545454"/>
<rect x="69" y="1026" width="60" height="6" fill="#545454"/>
<rect x="91" y="987" width="38" height="6" fill="#545454"/>
<rect x="91" y="1001" width="38" height="6" fill="#545454"/>
<rect x="91" y="1015" width="38" height="6" fill="#545454"/>
<rect x="68" y="1079" width="60" height="6" fill="#545454"/>
<rect x="90" y="1040" width="38" height="6" fill="#545454"/>
<rect x="90" y="1054" width="38" height="6" fill="#545454"/>
<rect x="90" y="1068" width="38" height="6" fill="#545454"/>
<rect x="68" y="1132" width="60" height="6" fill="#545454"/>
<rect x="90" y="1093" width="38" height="6" fill="#545454"/>
<rect x="90" y="1107" width="38" height="6" fill="#545454"/>
<rect x="90" y="1121" width="38" height="6" fill="#545454"/>
<rect x="68" y="1651" width="60" height="6" fill="#545454"/>
<rect x="90" y="1612" width="38" height="6" fill="#545454"/>
<rect x="90" y="1626" width="38" height="6" fill="#545454"/>
<rect x="90" y="1640" width="38" height="6" fill="#545454"/>
<rect width="60" height="6" transform="matrix(1 0 0 -1 68 1502)" fill="#545454"/>
<rect width="38" height="6" transform="matrix(1 0 0 -1 90 1541)" fill="#545454"/>
<rect width="38" height="6" transform="matrix(1 0 0 -1 90 1527)" fill="#545454"/>
<rect width="38" height="6" transform="matrix(1 0 0 -1 90 1513)" fill="#545454"/>
<rect width="60" height="6" transform="matrix(1 0 0 -1 68 1349)" fill="#545454"/>
<rect width="60" height="6" transform="matrix(1 0 0 -1 23 1297)" fill="#545454"/>
<rect width="38" height="6" transform="matrix(1 0 0 -1 90 1388)" fill="#545454"/>
<rect width="38" height="6" transform="matrix(1 0 0 -1 90 1374)" fill="#545454"/>
<rect width="38" height="6" transform="matrix(1 0 0 -1 90 1360)" fill="#545454"/>
<rect width="38" height="6" transform="matrix(1 0 0 -1 86 1335)" fill="#545454"/>
<rect width="38" height="6" transform="matrix(1 0 0 -1 68 1321)" fill="#545454"/>
<rect width="38" height="6" transform="matrix(1 0 0 -1 53 1309)" fill="#545454"/>
<rect width="38" height="6" transform="matrix(1 0 0 -1 40 1260)" fill="#545454"/>
<rect width="78" height="6" transform="matrix(1 0 0 -1 0 1273)" fill="#545454"/>
<rect width="38" height="6" transform="matrix(1 0 0 -1 40 1285)" fill="#545454"/>
<rect width="60" height="6" transform="matrix(1 0 0 -1 68 1400)" fill="#545454"/>
<rect width="38" height="6" transform="matrix(1 0 0 -1 90 1439)" fill="#545454"/>
<rect width="38" height="6" transform="matrix(1 0 0 -1 90 1425)" fill="#545454"/>
<rect width="38" height="6" transform="matrix(1 0 0 -1 90 1411)" fill="#545454"/>
<rect width="60" height="6" transform="matrix(1 0 0 -1 68 1451)" fill="#545454"/>
<rect width="38" height="6" transform="matrix(1 0 0 -1 90 1490)" fill="#545454"/>
<rect width="38" height="6" transform="matrix(1 0 0 -1 90 1476)" fill="#545454"/>
<rect width="38" height="6" transform="matrix(1 0 0 -1 90 1462)" fill="#545454"/>
<rect width="60" height="6" transform="matrix(1 0 0 -1 18 1247)" fill="#545454"/>
<rect x="68" y="1547" width="60" height="6" fill="#545454"/>
<rect x="68" y="1600" width="60" height="6" fill="#545454"/>
<rect x="90" y="1561" width="38" height="6" fill="#545454"/>
<rect x="90" y="1575" width="38" height="6" fill="#545454"/>
<rect x="90" y="1589" width="38" height="6" fill="#545454"/>
<rect x="68" y="1702" width="60" height="6" fill="#545454"/>
<rect x="90" y="1663" width="38" height="6" fill="#545454"/>
<rect x="90" y="1677" width="38" height="6" fill="#545454"/>
<rect x="90" y="1691" width="38" height="6" fill="#545454"/>
<rect x="68" y="1753" width="60" height="6" fill="#545454"/>
<rect x="90" y="1714" width="38" height="6" fill="#545454"/>
<rect x="90" y="1728" width="38" height="6" fill="#545454"/>
<rect x="90" y="1742" width="38" height="6" fill="#545454"/>
<rect x="68" y="1804" width="60" height="6" fill="#545454"/>
<rect x="90" y="1765" width="38" height="6" fill="#545454"/>
<rect x="90" y="1779" width="38" height="6" fill="#545454"/>
<rect x="90" y="1793" width="38" height="6" fill="#545454"/>
<rect x="68" y="1959" width="60" height="6" fill="#545454"/>
<rect x="90" y="1920" width="38" height="6" fill="#545454"/>
<rect x="90" y="1934" width="38" height="6" fill="#545454"/>
<rect x="90" y="1948" width="38" height="6" fill="#545454"/>
<rect x="68" y="2216" width="60" height="6" fill="#545454"/>
<rect x="90" y="2177" width="38" height="6" fill="#545454"/>
<rect x="90" y="2191" width="38" height="6" fill="#545454"/>
<rect x="90" y="2205" width="38" height="6" fill="#545454"/>
<rect x="68" y="2267" width="60" height="6" fill="#545454"/>
<rect x="90" y="2228" width="38" height="6" fill="#545454"/>
<rect x="90" y="2242" width="38" height="6" fill="#545454"/>
<rect x="90" y="2256" width="38" height="6" fill="#545454"/>
<rect x="68" y="2318" width="60" height="6" fill="#545454"/>
<rect x="90" y="2279" width="38" height="6" fill="#545454"/>
<rect x="90" y="2293" width="38" height="6" fill="#545454"/>
<rect x="90" y="2307" width="38" height="6" fill="#545454"/>
<rect x="68" y="2010" width="60" height="6" fill="#545454"/>
<rect x="90" y="1971" width="38" height="6" fill="#545454"/>
<rect x="90" y="1985" width="38" height="6" fill="#545454"/>
<rect x="90" y="1999" width="38" height="6" fill="#545454"/>
<rect x="68" y="2267" width="60" height="6" fill="#545454"/>
<rect x="90" y="2228" width="38" height="6" fill="#545454"/>
<rect x="90" y="2242" width="38" height="6" fill="#545454"/>
<rect x="90" y="2256" width="38" height="6" fill="#545454"/>
<rect x="68" y="2318" width="60" height="6" fill="#545454"/>
<rect x="90" y="2279" width="38" height="6" fill="#545454"/>
<rect x="90" y="2293" width="38" height="6" fill="#545454"/>
<rect x="90" y="2307" width="38" height="6" fill="#545454"/>
<rect x="68" y="2369" width="60" height="6" fill="#545454"/>
<rect x="90" y="2330" width="38" height="6" fill="#545454"/>
<rect x="90" y="2344" width="38" height="6" fill="#545454"/>
<rect x="90" y="2358" width="38" height="6" fill="#545454"/>
<rect x="68" y="2061" width="60" height="6" fill="#545454"/>
<rect x="90" y="2022" width="38" height="6" fill="#545454"/>
<rect x="90" y="2036" width="38" height="6" fill="#545454"/>
<rect x="90" y="2050" width="38" height="6" fill="#545454"/>
<rect x="68" y="2318" width="60" height="6" fill="#545454"/>
<rect x="90" y="2279" width="38" height="6" fill="#545454"/>
<rect x="90" y="2293" width="38" height="6" fill="#545454"/>
<rect x="90" y="2307" width="38" height="6" fill="#545454"/>
<rect x="68" y="2369" width="60" height="6" fill="#545454"/>
<rect x="90" y="2330" width="38" height="6" fill="#545454"/>
<rect x="90" y="2344" width="38" height="6" fill="#545454"/>
<rect x="90" y="2358" width="38" height="6" fill="#545454"/>
<rect x="68" y="2420" width="60" height="6" fill="#545454"/>
<rect x="90" y="2381" width="38" height="6" fill="#545454"/>
<rect x="90" y="2395" width="38" height="6" fill="#545454"/>
<rect x="90" y="2409" width="38" height="6" fill="#545454"/>
<rect x="68" y="1855" width="60" height="6" fill="#545454"/>
<rect x="90" y="1816" width="38" height="6" fill="#545454"/>
<rect x="90" y="1830" width="38" height="6" fill="#545454"/>
<rect x="90" y="1844" width="38" height="6" fill="#545454"/>
<rect x="68" y="2010" width="60" height="6" fill="#545454"/>
<rect x="90" y="1971" width="38" height="6" fill="#545454"/>
<rect x="90" y="1985" width="38" height="6" fill="#545454"/>
<rect x="90" y="1999" width="38" height="6" fill="#545454"/>
<rect x="68" y="2267" width="60" height="6" fill="#545454"/>
<rect x="90" y="2228" width="38" height="6" fill="#545454"/>
<rect x="90" y="2242" width="38" height="6" fill="#545454"/>
<rect x="90" y="2256" width="38" height="6" fill="#545454"/>
<rect x="68" y="2318" width="60" height="6" fill="#545454"/>
<rect x="90" y="2279" width="38" height="6" fill="#545454"/>
<rect x="90" y="2293" width="38" height="6" fill="#545454"/>
<rect x="90" y="2307" width="38" height="6" fill="#545454"/>
<rect x="68" y="2369" width="60" height="6" fill="#545454"/>
<rect x="90" y="2330" width="38" height="6" fill="#545454"/>
<rect x="90" y="2344" width="38" height="6" fill="#545454"/>
<rect x="90" y="2358" width="38" height="6" fill="#545454"/>
<rect x="68" y="2061" width="60" height="6" fill="#545454"/>
<rect x="90" y="2022" width="38" height="6" fill="#545454"/>
<rect x="90" y="2036" width="38" height="6" fill="#545454"/>
<rect x="90" y="2050" width="38" height="6" fill="#545454"/>
<rect x="68" y="2318" width="60" height="6" fill="#545454"/>
<rect x="90" y="2279" width="38" height="6" fill="#545454"/>
<rect x="90" y="2293" width="38" height="6" fill="#545454"/>
<rect x="90" y="2307" width="38" height="6" fill="#545454"/>
<rect x="68" y="2369" width="60" height="6" fill="#545454"/>
<rect x="90" y="2330" width="38" height="6" fill="#545454"/>
<rect x="90" y="2344" width="38" height="6" fill="#545454"/>
<rect x="90" y="2358" width="38" height="6" fill="#545454"/>
<rect x="68" y="2420" width="60" height="6" fill="#545454"/>
<rect x="90" y="2381" width="38" height="6" fill="#545454"/>
<rect x="90" y="2395" width="38" height="6" fill="#545454"/>
<rect x="90" y="2409" width="38" height="6" fill="#545454"/>
<rect x="68" y="2112" width="60" height="6" fill="#545454"/>
<rect x="90" y="2073" width="38" height="6" fill="#545454"/>
<rect x="90" y="2087" width="38" height="6" fill="#545454"/>
<rect x="90" y="2101" width="38" height="6" fill="#545454"/>
<rect x="68" y="2369" width="60" height="6" fill="#545454"/>
<rect x="90" y="2330" width="38" height="6" fill="#545454"/>
<rect x="90" y="2344" width="38" height="6" fill="#545454"/>
<rect x="90" y="2358" width="38" height="6" fill="#545454"/>
<rect x="68" y="2420" width="60" height="6" fill="#545454"/>
<rect x="90" y="2381" width="38" height="6" fill="#545454"/>
<rect x="90" y="2395" width="38" height="6" fill="#545454"/>
<rect x="90" y="2409" width="38" height="6" fill="#545454"/>
<rect x="68" y="2471" width="60" height="6" fill="#545454"/>
<rect x="90" y="2432" width="38" height="6" fill="#545454"/>
<rect x="90" y="2446" width="38" height="6" fill="#545454"/>
<rect x="90" y="2460" width="38" height="6" fill="#545454"/>
<rect x="68" y="1906" width="60" height="6" fill="#545454"/>
<rect x="90" y="1867" width="38" height="6" fill="#545454"/>
<rect x="90" y="1881" width="38" height="6" fill="#545454"/>
<rect x="90" y="1895" width="38" height="6" fill="#545454"/>
<rect x="68" y="2061" width="60" height="6" fill="#545454"/>
<rect x="90" y="2022" width="38" height="6" fill="#545454"/>
<rect x="90" y="2036" width="38" height="6" fill="#545454"/>
<rect x="90" y="2050" width="38" height="6" fill="#545454"/>
<rect x="68" y="2318" width="60" height="6" fill="#545454"/>
<rect x="90" y="2279" width="38" height="6" fill="#545454"/>
<rect x="90" y="2293" width="38" height="6" fill="#545454"/>
<rect x="90" y="2307" width="38" height="6" fill="#545454"/>
<rect x="68" y="2369" width="60" height="6" fill="#545454"/>
<rect x="90" y="2330" width="38" height="6" fill="#545454"/>
<rect x="90" y="2344" width="38" height="6" fill="#545454"/>
<rect x="90" y="2358" width="38" height="6" fill="#545454"/>
<rect x="68" y="2420" width="60" height="6" fill="#545454"/>
<rect x="90" y="2381" width="38" height="6" fill="#545454"/>
<rect x="90" y="2395" width="38" height="6" fill="#545454"/>
<rect x="90" y="2409" width="38" height="6" fill="#545454"/>
<rect x="68" y="2112" width="60" height="6" fill="#545454"/>
<rect x="90" y="2073" width="38" height="6" fill="#545454"/>
<rect x="90" y="2087" width="38" height="6" fill="#545454"/>
<rect x="90" y="2101" width="38" height="6" fill="#545454"/>
<rect x="68" y="2369" width="60" height="6" fill="#545454"/>
<rect x="90" y="2330" width="38" height="6" fill="#545454"/>
<rect x="90" y="2344" width="38" height="6" fill="#545454"/>
<rect x="90" y="2358" width="38" height="6" fill="#545454"/>
<rect x="68" y="2420" width="60" height="6" fill="#545454"/>
<rect x="90" y="2381" width="38" height="6" fill="#545454"/>
<rect x="90" y="2395" width="38" height="6" fill="#545454"/>
<rect x="90" y="2409" width="38" height="6" fill="#545454"/>
<rect x="68" y="2471" width="60" height="6" fill="#545454"/>
<rect x="90" y="2432" width="38" height="6" fill="#545454"/>
<rect x="90" y="2446" width="38" height="6" fill="#545454"/>
<rect x="90" y="2460" width="38" height="6" fill="#545454"/>
<rect x="68" y="2163" width="60" height="6" fill="#545454"/>
<rect x="90" y="2124" width="38" height="6" fill="#545454"/>
<rect x="90" y="2138" width="38" height="6" fill="#545454"/>
<rect x="90" y="2152" width="38" height="6" fill="#545454"/>
<rect x="68" y="2420" width="60" height="6" fill="#545454"/>
<rect x="90" y="2381" width="38" height="6" fill="#545454"/>
<rect x="90" y="2395" width="38" height="6" fill="#545454"/>
<rect x="90" y="2409" width="38" height="6" fill="#545454"/>
<rect x="68" y="2471" width="60" height="6" fill="#545454"/>
<rect x="90" y="2432" width="38" height="6" fill="#545454"/>
<rect x="90" y="2446" width="38" height="6" fill="#545454"/>
<rect x="90" y="2460" width="38" height="6" fill="#545454"/>
<rect x="68" y="2522" width="60" height="6" fill="#545454"/>
<rect x="90" y="2483" width="38" height="6" fill="#545454"/>
<rect x="90" y="2497" width="38" height="6" fill="#545454"/>
<rect x="90" y="2511" width="38" height="6" fill="#545454"/>
<defs>
<linearGradient id="paint0_linear_18_552" x1="149" y1="2528" x2="149" y2="-3.61819e-06" gradientUnits="userSpaceOnUse">
<stop stop-color="#E30000"/>
<stop offset="0.248208" stop-color="#5E45A6"/>
<stop offset="0.427945" stop-color="#FF7A00"/>
<stop offset="0.651698" stop-color="#F09F54"/>
<stop offset="0.804931" stop-color="#4000F7"/>
<stop offset="1" stop-color="#FF2727"/>
</linearGradient>
</defs>
</svg>
